<svg version="1.2" xmlns="http://www.w3.org/2000/svg" viewBox="0 0 23 17" width="23" height="17"><style>.a{fill:#757b88}</style><path class="a" d="m11.4 8.1l-4.9-5.1-5.1 5.2-0.2-0.4-0.3-0.8-0.3-0.8-0.1-0.7v-0.7l0.1-0.7 0.2-0.7 0.1-0.3 0.2-0.2 0.2-0.3 0.2-0.3 0.2-0.2 0.3-0.2 0.3-0.2 0.3-0.2 0.4-0.2 0.3-0.2 0.4-0.1 0.4-0.1 0.4-0.1 0.4-0.1h0.4l0.5-0.1h0.4 0.5 0.5l0.5 0.1h0.5l0.5 0.1 0.6 0.1 0.5 0.1 0.6 0.1 0.5 0.1 0.5 0.2 0.6 0.2 0.6 0.2 0.5 0.3 0.6 0.2 0.5 0.3 1.2 0.5 1 0.6 1 0.7 0.7 0.5-10.8-2.4 4.4 4.4 7.9-0.7 0.7 0.8zm-3.3 6.1l-1.1-0.6-0.9-0.7-1-0.6-0.8-0.8-0.8-0.7-0.7-0.8-0.5-0.5 15.6 5.3 3.6-6.5 0.3 0.5 0.4 0.7 0.4 0.8 0.2 0.8 0.2 0.7v0.7l-0.1 0.7-0.2 0.7-0.2 0.3-0.1 0.3-0.2 0.2-0.2 0.3-0.3 0.2-0.3 0.3-0.3 0.2-0.3 0.2-0.3 0.1-0.4 0.2-0.3 0.1-0.4 0.1-0.4 0.1-0.4 0.1-0.5 0.1h-0.4-0.5-0.5-0.5-0.5l-0.5-0.1-0.5-0.1-0.5-0.1h-0.6l-0.5-0.2-0.6-0.1-0.5-0.2-0.5-0.2-0.6-0.2-0.6-0.2-0.5-0.3-0.6-0.2z"/></svg>