<svg version="1.2" xmlns="http://www.w3.org/2000/svg" viewBox="0 0 88 90" width="88" height="90"><defs><linearGradient id="P" gradientUnits="userSpaceOnUse"/><linearGradient id="g1" x1="44" y1="89.6" x2="44" y2=".2" href="#P"><stop stop-color="#25b3b1"/><stop offset=".8" stop-color="#afbfbe"/></linearGradient></defs><style>.s0{fill:url(#g1)}</style><path class="s0" d="m81.7 72.4l-11.9 11.3l-3-3.1l11.9-11.3zm-29 11.2c-7.2-7.4-3.4-13.4-7-17.1c-3.6-3.8-4.9-2.6-7.3-5c-4.4-4.6-1.9-10.4 0.7-14.2l8 8.2c-0.4 2.6 0.3 5.3 2.3 7.4c3.3 3.4 8.7 3.5 12.1 0.2c3.5-3.4 3.5-8.8 0.2-12.2c-1.9-2-4.6-2.9-7.2-2.5l-8-8.3c3.9-2.5 9.8-4.7 14.2-0.2c2.4 2.5 1.2 3.7 4.8 7.4c3.5 3.7 9.7 0.1 16.9 7.6c7.2 7.4 8.2 18.4-1.7 27.9c-9.9 9.6-20.8 8.2-28 0.8zm15.9-3.4l9.9-9.6l2.4 2.5l-9.9 9.6zm-63.5-68l7.4-7.2l10.8 11.1l-7.4 7.2zm-4.9 2.4l2.5-2.4l3.6 3.7l-2.5 2.4zm4.8 4.9l2.5-2.4l3.5 3.8l-2.4 2.4zm4.8 4.9l2.4-2.4l3.6 3.7l-2.4 2.4zm2.7-21.9l2.5-2.4l3.6 3.8l-2.5 2.3zm4.8 5l2.5-2.4l3.6 3.7l-2.5 2.4zm4.8 5l2.5-2.4l3.6 3.7l-2.5 2.4zm40.4 44.3c0.1 3.8-3 6.9-6.9 7c-3.8 0-7-3.1-7-7q0-1 0.2-1.9l-1.3-1.3l-7.4-7.8l-21.8-22.4l4.9-4.8l21.8 22.4l7.5 7.8l1.2 1.3q0.9-0.3 1.8-0.3c3.9 0 7 3.1 7 7z" /></svg>