<svg version="1.2" xmlns="http://www.w3.org/2000/svg" viewBox="0 0 55 89" width="55" height="89"><defs><linearGradient id="P" gradientUnits="userSpaceOnUse"/><linearGradient id="g1" x1="27.4" y1="89.1" x2="27.4" y2=".2" href="#P"><stop stop-color="#25b3b1"/><stop offset=".8" stop-color="#afbfbe"/></linearGradient></defs><style>.s0{fill:url(#g1)}</style><path class="s0" d="m49.5 25.5c-3.3-1.9-7-5.2-10.4-9.3c-2.9-3.5-5-7.1-6.3-10.3q-0.1-0.1-0.1-0.2c-0.6-1.2-1-2.9-1-2.9c6.1-4.3 14.7-3.2 19.5 2.7c4.9 6 4.2 14.9-1.7 20zm1.5-9.7c0.3-0.4 0.8-0.5 1.2-0.2c0.4 0.3 0.2 1.3 0.2 1.3q-0.1 0.1-0.1 0.2c-0.3 0.3-0.8 0.4-1.2 0.1c-0.3-0.2-0.2-1.3-0.1-1.4zm1.3 5.9c-0.3 0.4-0.7 0.6-1 0.4c-0.1-0.1-0.1-1 0.1-1.3c0.3-0.4 0.8-0.5 1-0.3c0.1 0.1 0.1 1-0.1 1.2zm1.5-6.6c-0.2 0.2-0.7 0.1-1-0.3c-0.1-0.2-0.2-1.1 0-1.2c0.2-0.2 0.7-0.1 1 0.2c0.1 0.2 0.2 1.1 0 1.3zm-1.7-5.7c0.2-0.2 0.7 0 1 0.4c0.1 0.2 0.3 1 0.2 1.1c-0.2 0.2-0.6 0-0.9-0.3c-0.2-0.2-0.4-1.1-0.3-1.2zm-0.1 2.9c-0.3 0.2-0.8 0.1-1.1-0.3c-0.2-0.2-0.3-1.2-0.1-1.3c0.3-0.3 0.8-0.2 1.1 0.2c0.2 0.2 0.3 1.2 0.1 1.4zm-2.1-6.5c0.2-0.2 0.7 0 1 0.5c0.2 0.2 0.5 1.1 0.4 1.2c-0.2 0.2-0.6-0.1-1-0.5c-0.2-0.2-0.5-1.1-0.4-1.2zm-0.3 1.8c0.2 0.2 0.3 1.3 0.1 1.4c-0.3 0.3-0.8 0.1-1.2-0.3c-0.2-0.2-0.3-1.3-0.1-1.4c0.3-0.3 0.8-0.2 1.2 0.3zm-2.4 1.7c0.2 0.2 0.2 1.3 0 1.5c-0.4 0.3-0.9 0.2-1.3-0.2c-0.2-0.2-0.2-1.4 0-1.5c0.4-0.3 0.9-0.2 1.3 0.2zm-4.2-8.2c0.3-0.2 0.7-0.1 1 0.2c0.2 0.3 0.2 0.8-0.1 1c-0.2 0.2-0.7 0.2-1-0.2c-0.2-0.3-0.2-0.7 0.1-1zm-7.3 1.4c-0.2 0.2-0.5 0.3-0.7 0.3c-0.2 0-0.4 0-0.5-0.1c-0.2-0.3-0.1-0.7 0.3-1.1c0.3-0.2 0.5-0.2 0.7-0.2c0.3-0.1 0.5 0 0.6 0.1c0.2 0.3 0 0.7-0.4 1zm2.6 2.8c-0.4 0.3-1 0.3-1.3-0.1c-0.2-0.3 0-1.4 0.2-1.5c0.4-0.4 0.9-0.3 1.3 0.1c0.2 0.2 0 1.3-0.2 1.5zm0.6-3.7c-0.5 0-0.9-0.2-0.9-0.5c-0.1-0.3 0.2-0.5 0.6-0.6c0.5 0 0.9 0.1 0.9 0.4c0.1 0.3-0.2 0.6-0.6 0.7zm1.9 7.8c-0.4 0.4-1 0.3-1.3-0.1c-0.2-0.3-0.2-1.4 0.1-1.6c0.3-0.4 0.9-0.3 1.3 0.2c0.2 0.2 0.2 1.3-0.1 1.5zm0.5-6.2c-0.4 0.4-0.9 0.5-1.2 0.2c-0.2-0.2-0.1-1.2 0.1-1.4c0.4-0.4 0.9-0.5 1.2-0.2c0.2 0.2 0.1 1.2-0.1 1.4zm2.6 10.4c-0.4 0.4-1 0.3-1.4-0.2c-0.2-0.2-0.2-1.5 0.1-1.7c0.4-0.3 1-0.2 1.4 0.2c0.2 0.3 0.2 1.5-0.1 1.7zm0.2-6.5c-0.4 0.2-0.9 0.1-1.3-0.3c-0.2-0.2-0.2-1.3 0-1.5c0.4-0.3 0.9-0.2 1.3 0.2c0.2 0.2 0.2 1.4 0 1.6zm1.1-3.6c0.3-0.3 0.8-0.2 1.2 0.2c0.1 0.3 0.2 1.3 0 1.4c-0.3 0.3-0.8 0.1-1.1-0.3c-0.2-0.2-0.2-1.2-0.1-1.3zm2 13.3c-0.4 0.3-1 0.2-1.3-0.2c-0.2-0.3-0.2-1.4 0-1.6c0.4-0.3 1-0.2 1.4 0.2c0.1 0.2 0.1 1.4-0.1 1.6zm0.3-12.8c-0.2-0.2-0.3-1-0.1-1.1c0.2-0.2 0.6 0 0.8 0.4c0.2 0.2 0.3 1 0.2 1.1c-0.3 0.2-0.7 0-0.9-0.4zm1 8.6c0.3-0.3 0.9-0.2 1.2 0.2c0.2 0.2 0.3 1.4 0 1.5c-0.3 0.3-0.9 0.2-1.2-0.2c-0.2-0.2-0.3-1.4 0-1.5zm0.3 7.4c-0.2-0.2-0.2-1.3 0.1-1.5c0.4-0.3 1-0.3 1.3 0.1c0.1 0.2 0.1 1.3-0.1 1.5c-0.4 0.3-1 0.3-1.3-0.1zm-10.8 9q-0.1 0-0.1-0.1q-0.6 0-1.1-0.2c-2.1-1.5-4.2-3.4-6.1-5.7c-2.3-2.8-4-5.8-5.1-8.8c0.1-3.6 1.6-7.2 4.3-9.9c1.1 3.9 3.7 8.8 7.5 13.5c3.3 4.1 6.9 7.2 10.2 9.2c-2.9 1.8-6.3 2.4-9.6 2zm-20 46.5v-31.3q-0.4-0.1-0.7-0.4l-4.4 3.2c-2.5 2-5.9 1.8-7.7-0.5l-3.7-4.5c-1.9-2.2-1.4-5.7 1-7.7l4.2-3.8c-0.1-0.7-0.1-1.3 0.3-1.7l8.5-6.9c0.3-0.2 0.6-0.2 0.9-0.2l6.7-6.1c1.1 3.1 2.9 6.4 5.4 9.5c2 2.4 4.3 4.4 6.6 6l-6.7 4.7c0.1 0.7 0 1.2-0.3 1.5l-4.4 3.6v34.5c8.8 0.3 15.7 2.9 15.7 6.1c0 3.4-7.9 6.2-17.7 6.2c-9.8 0-17.8-2.8-17.8-6.2c0-2.9 6.1-5.4 14.1-6zm1.6-44.1c0.5 0.9-0.3 2.4-1.8 3.4c-1.6 1-3.3 1.1-3.8 0.3c-0.6-0.9 0.2-2.4 1.8-3.4c1.5-1 3.2-1.1 3.8-0.3zm21.8 50.1c0 4.2-8.6 7.6-19.2 7.6c-10.5 0-19.1-3.4-19.1-7.6c0-4.3 8.6-7.7 19.1-7.7c10.6 0 19.2 3.4 19.2 7.7z" /></svg>