<svg version="1.2" xmlns="http://www.w3.org/2000/svg" viewBox="0 0 26 26" width="26" height="26"><style>.a{fill:#757b88}</style><path class="a" d="m25.7 22.5c0 1.8-5.7 3.2-12.8 3.2-7.1 0-12.8-1.4-12.8-3.2 0-1.3 7.3-3.5 7.3-16.3 0-1.9 1.5-3.5 3.4-3.5h4.2c1.9 0 3.5 1.6 3.5 3.5 0 13.9 7.2 15 7.2 16.3zm-12.8-22.4c1.3 0 2.3 1.1 2.3 2.3q0 0.1 0 0.3h-0.9c0.1-0.1 0.1-0.2 0.1-0.3 0-0.8-0.7-1.5-1.5-1.5-0.8 0-1.5 0.7-1.5 1.5 0 0.1 0 0.2 0.1 0.3h-0.8q0-0.2 0-0.3c0-1.2 1-2.3 2.2-2.3zm0 19.8c-6.1 0-11 1.1-11 2.5 0 1.4 4.9 2.5 11 2.5 6.1 0 11-1.1 11-2.5 0-1.4-4.9-2.5-11-2.5zm2.7 0.5h-5.3c0 1.4 1.2 2.5 2.6 2.5 1.4 0 2.6-1.1 2.7-2.5z"/></svg>