<svg version="1.2" xmlns="http://www.w3.org/2000/svg" viewBox="0 0 96 89" width="96" height="89"><defs><linearGradient id="P" gradientUnits="userSpaceOnUse"/><linearGradient id="g1" x1="36.6" y1="88.3" x2="60.2" y2=".5" href="#P"><stop stop-color="#25b3b1"/><stop offset=".8" stop-color="#afbfbe"/></linearGradient></defs><style>.s0{fill:url(#g1)}</style><path class="s0" d="m44.3 75l31.8-33.7l9.1 10.1l-31.3 33.5zm43-44.2c10.1 0.2 8.5 9.1 8.5 9.1l-8.3 7.7l-8.5-8.6zm-35.4 54.6l-12.2 2.9l4.2-11.2zm19.3-72.6l-54 1.6l-0.1-2.9l54-1.6zm0.3 9.5l-54 1.6l-0.1-2.8l54-1.6zm0.3 9.4l-54 1.6l-0.1-2.8l54-1.6zm0.3 9.5l-54 1.6l-0.1-2.9l54-1.6zm-5 9.7l-48.7 1.4l-0.1-2.8l48.7-1.5zm-7.9 9.7l-40.5 1.2l-0.1-2.8l40.5-1.2zm-11.4 9.8l-28.8 0.9l-0.1-2.9l28.8-0.8zm-36.2-55.5c0 0 6.1-1.8 5.6-12.5l59.2-1.9c0 0 9.4 3.5 1.2 12.4zm68.5 66.3l-21.8 0.7l5.1-5.4l12.2-0.4l-0.4-12.3l4.3-4.6zm-44.5-3.5l4.7 4.7l-26.6 0.9l-2.2-68.4c1.9-0.3 3.5-1.3 4.5-2.8l2 65.8zm-18.2-68.6c0.7-1.8 0.9-3.6 0.9-5.2l59.3-1.8l1.2 40.6l-2.7-3l-1.7 1.8l-1-34.1zm-5.4 59.9l-11.1-0.2l3.8-58.6c-0.1-3.1 3.8-12.4 10.8-6.6c3.2 2.7-2.6 12.7-5.8 8.7z" /></svg>