<svg version="1.2" xmlns="http://www.w3.org/2000/svg" viewBox="0 0 19 25" width="19" height="25"><style>.a{fill:#757b88}</style><path class="a" d="m7.3 23.7q-0.6 0.4-1.8 1-2.1 0-3.9-1c-1-2.6-1.5-6.1-1.5-10.7q0-2.5 0.4-5.9 0.4-3.9 1.1-5.7c1.2-0.6 2.5-0.9 3.9-0.9q0.6 0.2 1.8 1l-0.4 4.9-2.6 1.7q-0.8 1.2-1 2.5-0.1 0.6-0.1 2.7 0 2.5 0.8 3.4 0.4 0.5 2.9 2.1zm11.7-8.6q-0.5 5.4-4.1 9.6c1.2-2.1 2-4.6 2.2-7.5q0.4-3.9-0.6-7.4c-0.8-2.8-2.2-4.8-4-6q3.5 1.5 5.2 4.5 1.6 3 1.3 6.8zm-3.4 0.3q0.3-3-1-5.4-1.4-2.4-4.2-3.6 2.3 1.4 3.2 4.8 0.8 2.8 0.5 5.9-0.3 3.4-1.8 6 3-3.4 3.3-7.7zm-3 0.4q0.2-2.5-0.9-4.4-1-1.9-3.3-2.9 1.8 1.2 2.6 3.9 0.6 2.2 0.4 4.8c-0.1 1.7-0.6 3.4-1.4 4.7 1.5-1.8 2.4-3.8 2.6-6.1z"/></svg>